<?xml version="1.0" encoding="UTF-8" standalone="no"?>
<!-- Uploaded to: SVG Repo, www.svgrepo.com, Generator: SVG Repo Mixer Tools -->

<svg
   fill="#000000"
   width="800px"
   height="800px"
   viewBox="0 0 32 32"
   id="icon"
   version="1.1"
   sodipodi:docname="favicon.svg"
   inkscape:version="1.3.2 (091e20ef0f, 2023-11-25)"
   xmlns:inkscape="http://www.inkscape.org/namespaces/inkscape"
   xmlns:sodipodi="http://sodipodi.sourceforge.net/DTD/sodipodi-0.dtd"
   xmlns="http://www.w3.org/2000/svg"
   xmlns:svg="http://www.w3.org/2000/svg">
  <sodipodi:namedview
     id="namedview1"
     pagecolor="#ffffff"
     bordercolor="#666666"
     borderopacity="1.0"
     inkscape:showpageshadow="2"
     inkscape:pageopacity="0.0"
     inkscape:pagecheckerboard="0"
     inkscape:deskcolor="#d1d1d1"
     inkscape:zoom="0.68147416"
     inkscape:cx="351.44399"
     inkscape:cy="344.84066"
     inkscape:window-width="2536"
     inkscape:window-height="960"
     inkscape:window-x="0"
     inkscape:window-y="0"
     inkscape:window-maximized="1"
     inkscape:current-layer="icon" />
  <defs
     id="defs1">
    <style
       id="style1">
      .cls-1 {
        fill: none;
      }
    </style>
  </defs>
  <polygon
     points="11,27 11,29 13,29 13,27 18,27 18,29 20,29 20,27 25,27 25,29 27,29 27,27 30,27 30,25 2,25 2,27 4,27 4,29 6,29 6,27 "
     id="polygon1"
     style="fill:#d45500;fill-opacity:1;stroke-width:1.296;stroke-dasharray:none"
     transform="matrix(1.0925702,0,0,1.0925702,-2.0271332,-3.1199716)" />
  <path
     d="M 30.437935,15.005768 17.802361,6.319835 A 16.315023,16.315023 0 0 0 8.5182452,3.4354496 H 0.15800722 V 5.62059 H 8.5182452 a 14.144305,14.144305 0 0 1 8.0464518,2.4988173 l 1.132558,0.7788933 H 7.8059987 V 11.083441 H 20.875761 l 8.323964,5.722664 a 1.0554228,1.0554228 0 0 1 -0.597526,1.925327 H 0.15800722 v 2.18514 H 28.602199 a 3.2406725,3.2406725 0 0 0 1.835518,-5.910804 z"
     id="path1"
     style="fill:#d45500;fill-opacity:1;stroke-width:1.41597;stroke-dasharray:none" />
</svg>
